<?xml version="1.0" standalone="yes"?>
<svg xmlns="http://www.w3.org/2000/svg" width="120" height="120">
<path style="fill:#000000; stroke:none;" d="M0 0L0 120L120 120L120 0L0 0z"/>
<path style="fill:#ffffff; stroke:none;" d="M38.1844 3.02778C34.6709 5.02699 32.4206 9.7971 30.1412 13C23.1599 22.8097 24 31.403 24 43L24 75L24 92C24.0046 94.236 23.532 97.508 25.0278 99.3966C28.001 103.151 40.6192 101 45 101L94 101C98.9341 101 108.435 102.806 112.682 99.9722C115.937 97.8003 115 92.3408 115 89L115 59L115 35C115 31.1674 115.595 26.713 114.486 23C113.238 18.8199 109.688 15.4395 107.154 12C104.852 8.8739 102.6 4.16215 98.8264 2.60339C95.6776 1.30267 91.336 2 88 2L64 2L47 2C44.1676 2.00127 40.7493 1.56834 38.1844 3.02778z"/>
<path style="fill:#000000; stroke:none;" d="M35 20L103 20C101.231 16.2824 98.7329 11.3085 94.7106 9.60339C90.8705 7.97545 85.0972 9 81 9L55 9C51.4053 9 46.5673 8.18597 43.1844 9.60339C39.2981 11.2318 36.7701 16.4417 35 20z"/>
<path style="fill:#ffffff; stroke:none;" d="M16 110L16 41C16 35.8342 16.6821 30.1238 15.8519 25.0193C15.5124 22.9326 14.4733 20.6358 12 20.6358C9.52667 20.6358 8.48756 22.9326 8.14815 25.0193C7.26667 30.4386 8 36.5147 8 42L8 97C8 101.855 6.01746 112.533 9.74228 116.258C13.7038 120.219 25.7993 118 31 118L91 118C96.9044 118 103.126 118.56 108.995 117.891C111.205 117.639 114.364 116.801 114.364 114C114.364 111.199 111.205 110.361 108.995 110.109C103.45 109.477 97.5781 110 92 110L16 110z"/>
<path style="fill:#000000; stroke:none;" d="M31 28L31 94L107 94L107 28L31 28z"/>
<path style="fill:#ffffff; stroke:none;" d="M49.3225 42.0278C46.17 44.1767 47.9552 47.8281 51.0586 48.6821C58.699 50.7845 69.0853 49.0031 77 49C79.7434 48.9989 84.0916 49.6911 86.392 47.821C89.7395 45.0997 85.8589 41.6159 82.9807 41.1481C75.3588 39.9094 66.7205 40.9995 59 41C56.1073 41.0002 51.8545 40.3019 49.3225 42.0278z"/>
</svg>
