<?xml version="1.0" standalone="yes"?>
<svg xmlns="http://www.w3.org/2000/svg" width="127" height="127">
<path style="fill:#000000; stroke:none;" d="M0 0L0 41C2.3953 36.1362 3.60728 30.7894 6.33796 26C13.1495 14.0532 26.2389 3.36945 40 1C35.7849 -0.768745 30.5355 0 26 0L0 0z"/>
<path style="fill:#ffffff; stroke:none;" d="M40 0.46759C34.3947 1.51786 28.8186 4.07441 24 7.06558C-9.34621 27.7654 -7.95977 79.5156 27 97.9599C38.623 104.092 53.3746 105.578 66 101.96C70.2047 100.755 74.2453 99.1842 78 96.9329C80.3559 95.5202 83.0531 93.1015 86 94.1134C89.5001 95.3152 92.465 99.4653 95 102L112 119C114.901 121.895 119.097 127.545 123.852 126.623C130.515 125.331 124.102 117.217 121.981 115C115.145 107.855 107.989 100.995 101 94C98.6502 91.6481 94.3025 88.5547 93.8711 85C93.4267 81.3374 97.6396 77.1756 99.0988 74C102.077 67.518 103.682 60.1188 103.96 53C105.304 18.493 72.6679 -5.65341 40 0.46759z"/>
<path style="fill:#000000; stroke:none;" d="M63 0C69.0599 2.98911 75.3916 4.89256 81 8.92361C97.8155 21.0097 106.219 40.6197 102.855 61C101.937 66.5629 99.8505 72.1845 96.9321 77C95.379 79.5627 92.3359 82.7459 93.3056 86C94.5625 90.2182 99.9955 93.9955 103 97C110.692 104.692 118.097 113.729 127 120L127 0L63 0M47 8.42824C37.827 9.74178 29.0976 13.166 22.0394 19.3256C18.0675 22.7918 15.0571 27.2745 12.7855 32C-1.9025 62.5548 22.4716 99.2088 57 94.7106C63.7943 93.8255 70.2596 91.4947 76 87.7562C107.403 67.3044 97.2465 16.9261 61 9.28627C56.3399 8.30404 51.7367 7.74996 47 8.42824M0 63L0 127L120 127C113.729 118.097 104.692 110.692 97 103C93.9955 99.9955 90.2182 94.5625 86 93.3056C82.2098 92.1762 78.0771 96.4358 75 98.0988C69.1023 101.286 62.576 102.69 56 103.575C37.2763 106.095 18.5135 95.0483 8.21991 80C4.58756 74.6898 3.09561 68.5093 0 63M126 126L127 127L126 126z"/>
</svg>
