<?xml version="1.0" standalone="yes"?>
<svg xmlns="http://www.w3.org/2000/svg" width="142" height="142">
<path style="fill:#000000; stroke:none;" d="M0 0L0 142L142 142L142 0L0 0z"/>
<path style="fill:#ffffff; stroke:none;" d="M50 12.642C43.4181 14.3869 32.0987 20.319 29.6034 27.0039C27.3863 32.9434 30.0322 39.0973 26.6327 44.9961C22.4145 52.3156 12.2993 52.4007 10.1389 61C8.4591 67.6864 7.50953 80.1293 12.5139 85.6975C16.4668 90.0958 22.6369 90.7084 26.348 96.0039C28.3459 98.8548 29.639 102.494 29.5262 106C29.3864 110.349 27.5134 113.928 30.5177 117.826C34.731 123.294 47.7475 131.762 55 129.243C60.8858 127.199 64.0592 121.878 71 122.391C78.4553 122.943 83.5354 131.158 91 129.386C97.7853 127.775 110.016 122.112 112.357 114.996C114.224 109.322 110.767 103.817 114.09 98.0008C118.478 90.3193 129.135 89.8382 131.177 80.9992C132.619 74.7544 134.107 61.447 129.486 56.3025C124.895 51.1917 118.055 50.8813 114.442 44C111.536 38.4651 114.011 33.5693 112.678 28C110.894 20.5443 98.9148 14.3166 92 12.6173C83.8149 10.6058 78.5982 20.5764 70 19.6559C62.7743 18.8823 57.3837 10.6845 50 12.642z"/>
<path style="fill:#000000; stroke:none;" d="M18 60C17.3112 65.4499 15.0189 74.5563 18.3179 79.5015C20.0022 82.0264 23.6161 82.9165 25.9961 84.6381C29.6596 87.2881 32.6052 90.9666 34.6219 95C37.4106 100.577 35.4321 106.501 37.6034 111.907C39.1915 115.861 45.0671 118.926 49 119.976C52.8913 121.015 55.7013 118.456 59 116.831C62.718 114.999 66.8412 113.955 71 114.055C77.9158 114.222 82.6141 119.546 89 120.386C92.4083 120.834 96.1592 118.783 98.9954 117.12C100.587 116.187 102.257 115.16 103.397 113.671C107.045 108.905 104.555 100.644 107.378 95C109.396 90.9659 112.307 87.5736 116.004 84.9892C118.268 83.4063 121.314 82.4774 123.146 80.3519C126.629 76.3098 127.508 67.9947 125.772 63.108C124.207 58.7068 118.373 57.5996 115.093 54.6705C107.071 47.5041 105.117 38.1423 107 28C102.507 25.5084 96.3764 20.043 91 20.1975C88.0671 20.2818 85.533 22.5843 83 23.8125C79.0936 25.7067 74.3769 27.1734 70 26.8117C59.7088 25.9614 54.3576 17.2904 44.0008 23.0995C42.3593 24.0202 40.6209 24.9941 39.3179 26.3796C35.6458 30.2843 37.5764 36.2089 36.4707 41C34.3796 50.061 26.9183 57.7458 18 60z"/>
<path style="fill:#ffffff; stroke:none;" d="M68 48.4437C64.4141 48.9786 61.0397 50.1002 58.0039 52.1088C38.1818 65.2236 50.5233 97.0585 74 93.5563C77.5859 93.0214 80.9603 91.8998 83.9961 89.8912C103.818 76.7764 91.4767 44.9415 68 48.4437z"/>
<path style="fill:#000000; stroke:none;" d="M67 53.4792C42.9436 58.4074 51.8558 93.2622 75 88.5208C98.9744 83.6094 90.1748 48.7316 67 53.4792z"/>
</svg>
