<?xml version="1.0" standalone="yes"?>
<svg xmlns="http://www.w3.org/2000/svg" width="153" height="153">
<path style="fill:#000000; stroke:none;" d="M0 0L0 153L153 153L153 0L0 0z"/>
<path style="fill:#ffffff; stroke:none;" d="M74 23.4429C63.4707 24.6927 53.3299 28.4612 46.5177 37.0039C43.4783 40.8155 41.552 48.3224 37.5818 50.973C34.6014 52.9628 29.4459 52.7936 26 54.0154C17.6073 56.9913 10.3078 63.6828 6.93056 72C-2.83728 96.0553 16.0383 124.179 42.9846 119.852C47.8517 119.07 50.5284 113.321 45.6551 110.318C40.2765 107.003 32.8835 109.076 27 105.521C12.7007 96.881 11.6237 76.4184 26.0039 67.1327C29.2515 65.0357 33.1389 63.4711 37 63.1042C40.0407 62.8152 43.884 63.6399 46.5702 61.821C50.1623 59.3888 50.3214 52.6235 52.4823 49C58.8041 38.3992 70.9111 32.8908 83 35.6806C91.0256 37.5326 98.0504 43.6276 101.597 51C103.094 54.1107 103.166 58.7957 105.728 61.2577C108.341 63.7703 112.736 62.794 116 63.1042C120.227 63.5059 124.549 65.3299 127.985 67.8002C141.305 77.3744 140.056 97.3257 126 105.471C120.146 108.863 112.646 107.051 107.345 110.318C102.472 113.321 105.148 119.07 110.015 119.852C136.283 124.07 154.504 97.7628 146.783 74C143.925 65.2033 136.622 57.6545 128 54.3735C124.27 52.954 118.643 53.1263 115.418 50.973C111.448 48.3224 109.522 40.8155 106.482 37.0039C99.249 27.933 85.6549 22.0595 74 23.4429M71 106C71 114.836 70.0962 124.208 71.1088 132.985C71.5267 136.607 73.9064 139.485 77.8951 138.522C81.8814 137.56 81.9494 133.346 81.9961 130C82.1079 122.003 82 113.998 82 106C84.559 108.927 95.5293 121.173 97.6381 110.941C98.7428 105.582 92.8413 100.57 89.7153 97C86.6703 93.5221 82.0264 86.1291 76.9969 85.662C73.8142 85.3665 71.5297 87.9322 69.5756 90.044C65.1614 94.8144 55.6354 102.353 54.5424 108.995C53.2476 116.865 62.1668 115.465 65.8256 111.895C67.6838 110.082 69.2925 107.953 71 106z"/>
</svg>
